<svg height="225.779898" viewBox="0 0 75.98949 38.721" width="442.909226" xmlns="http://www.w3.org/2000/svg" xmlns:xlink="http://www.w3.org/1999/xlink"><clipPath id="a"><path d="m-201.21053-369.879h288v432h-288z"/></clipPath><clipPath id="b"><path d="m-1.41052 0h77.40001v38.721h-77.40001z"/></clipPath><g clip-path="url(#a)"><g clip-path="url(#b)"><g fill="#231f20"><path d="m13.29536 15.7254c1.246.036 1.144-.614 1.144-1.261v-5.238c0-.902.016-1.259-1.159-1.259-1.269 0-1.28.321-1.246 1.468l.13 4.729c.03 1.055-.023 1.527 1.131 1.561m-3.351.359v-.365c1.058-.105 1.11-.17 1.097-1.555l-.039-5.33h-.053l-3.187 7.159h-.261l-2.927-6.977h-.026l-.196 3.724c-.052 1.071-.052 1.646-.039 2.168.026.627.34.719 1.202.811v.365h-3.044v-.365c.758-.092 1.019-.236 1.11-.784.066-.458.144-1.033.249-2.391l.182-2.717c.118-1.699.053-1.751-1.136-1.869v-.365h2.142l2.979 6.532 3.018-6.532h5.984a5.17691 5.17691 0 0 1 3.697 1.11 3.851 3.851 0 0 1 1.098 2.809 4.14643 4.14643 0 0 1 -1.607 3.488 6.15626 6.15626 0 0 1 -3.88 1.084zm5.618-1.711c0 .993.431 1.241 1.385 1.241 2.443 0 3.567-1.829 3.567-3.919a3.43922 3.43922 0 0 0 -1.542-3.123 4.06853 4.06853 0 0 0 -2.221-.535 2.13325 2.13325 0 0 0 -1.019.157c-.131.091-.17.235-.17.744z"/><path d="m26.81978 8.77681h-.027c-.437 1.175-.874 2.363-1.284 3.483h2.513zm4.578 6.916c.838 0 .933-.206.933-1.091v-2.95c0-.912-.085-.955-.855-1.098v-.328a8.55925 8.55925 0 0 0 1.981-.584v1.14c.285-.213.599-.427.955-.67a2.18942 2.18942 0 0 1 1.183-.427c1.126 0 1.839.784 1.839 2.166v2.751c0 .97.071 1.027.898 1.112v.371h-2.965v-.371c.841-.085.941-.199.941-1.183v-2.38c0-.984-.342-1.625-1.297-1.625a2.55032 2.55032 0 0 0 -1.554.727v3.349c0 .97.086 1.027.927 1.112v.371h-6.225v-.383c.86-.109.983-.218.806-.751-.178-.532-.451-1.27-.751-2.103h-2.91c-.218.614-.423 1.188-.601 1.761-.3.861-.177.998.847 1.093v.383h-2.964v-.383c.861-.122 1.052-.204 1.53-1.406l2.827-7.172.424-.123c.847 2.35 1.762 4.945 2.636 7.322.282.757.494 1.37 1.395 1.37"/><path d="m45.20126 15.7138a14.80458 14.80458 0 0 0 -2.21.542v-.927l-.869.514a2.5128 2.5128 0 0 1 -1.112.413 2.85505 2.85505 0 0 1 -2.636-3.036 3.64674 3.64674 0 0 1 3.676-3.535 3.32353 3.32353 0 0 1 .941.156v-1.221c0-.941-.071-.983-1.097-1.055v-.342a13.32446 13.32446 0 0 0 2.223-.499v7.722c0 .741.099.812.627.869l.457.043zm-2.21-4.775a1.77032 1.77032 0 0 0 -1.468-.727c-.656 0-1.854.556-1.854 2.623 0 1.696 1.041 2.523 1.953 2.523a2.399 2.399 0 0 0 1.369-.485z"/><path d="m50.21747 14.87291a3.237 3.237 0 0 1 -2.323 1.383 2.81889 2.81889 0 0 1 -2.78-3.036 3.67861 3.67861 0 0 1 .94-2.495 2.89089 2.89089 0 0 1 2.082-1.04h.014a2.20731 2.20731 0 0 1 2.139 2.166c0 .285-.072.399-.329.456-.242.043-2.023.186-3.72.243.015 1.938 1.126 2.737 2.124 2.737a2.33182 2.33182 0 0 0 1.625-.713zm-2.423-4.661c-.642 0-1.269.599-1.483 1.753.799 0 1.583-.014 2.409-.043.257 0 .342-.085.342-.285a1.3067 1.3067 0 0 0 -1.254-1.425z"/><path d="m52.69728 11.1953c.428-.713 1.041-1.511 1.725-1.511a.79334.79334 0 0 1 .827.713.80386.80386 0 0 1 -.456.699.33159.33159 0 0 1 -.385-.029.76785.76785 0 0 0 -.599-.3c-.371 0-.827.428-1.141 1.226v2.609c0 .941.072 1.026 1.17 1.112v.37h-3.279v-.37c.884-.086.983-.171.983-1.112v-2.951c0-.941-.071-.998-.883-1.111v-.314a8.02974 8.02974 0 0 0 2.009-.585v1.554z"/><path d="m58.99708 11.5378c-.271-.841-.77-1.412-1.468-1.412a.93057.93057 0 0 0 -.927.984c0 .627.571.969 1.212 1.24 1.069.442 1.796.955 1.796 1.939a2.13882 2.13882 0 0 1 -2.352 1.967 2.8651 2.8651 0 0 1 -1.639-.484 6.72394 6.72394 0 0 1 -.228-1.683l.37-.071c.257.941.898 1.768 1.754 1.768a.995.995 0 0 0 1.012-.998c0-.627-.413-.97-1.127-1.297-.855-.399-1.781-.87-1.781-1.967a1.96429 1.96429 0 0 1 2.167-1.839 3.0705 3.0705 0 0 1 1.268.242 10.75965 10.75965 0 0 1 .314 1.525z"/><path d="m63.40117 9.6848a3.08916 3.08916 0 0 1 3.079 3.178 3.171 3.171 0 0 1 -3.093 3.393 3.08739 3.08739 0 0 1 -3.122-3.15 3.24928 3.24928 0 0 1 3.122-3.421zm-.171.47c-.87 0-1.639.884-1.639 2.495 0 1.796.784 3.136 1.953 3.136.883 0 1.61-.656 1.61-2.609 0-1.668-.67-3.022-1.91-3.022z"/><path d="m70.58467 16.0848v-.371c.841-.085.941-.199.941-1.183v-2.38c0-.984-.342-1.625-1.298-1.625a2.54757 2.54757 0 0 0 -1.553.727v3.349c0 .97.085 1.027.927 1.112v.371h-3.094v-.371c.97-.099 1.041-.171 1.041-1.112v-2.95c0-.912-.085-.955-.855-1.098v-.328a8.5599 8.5599 0 0 0 1.981-.584v1.14c.285-.213.599-.427.955-.67a2.18935 2.18935 0 0 1 1.183-.427c1.126 0 1.839.784 1.839 2.166v2.751c0 .97.071 1.027.898 1.112v.371z"/><path d="m10.39427 24.2827a14.49113 14.49113 0 0 1 -.775 2.081 11.555 11.555 0 0 1 -2.502.366c-3.385 0-4.867-2.338-4.867-4.5 0-2.855 2.203-4.745 5.234-4.745a10.74534 10.74534 0 0 1 2.407.367c.109.775.19 1.319.272 2.053l-.408.095a2.36572 2.36572 0 0 0 -2.638-2.026c-2.27 0-3.48 1.918-3.48 3.984 0 2.543 1.495 4.283 3.562 4.283 1.387 0 2.121-.748 2.801-2.108z"/><path d="m15.10046 26.6968a1.15669 1.15669 0 0 1 -.667-.27 1.48026 1.48026 0 0 1 -.341-.639 4.46341 4.46341 0 0 1 -1.674.909 1.71321 1.71321 0 0 1 -1.702-1.732 1.41594 1.41594 0 0 1 1.149-1.404 10.20179 10.20179 0 0 0 2.199-.922v-.256c0-1.021-.482-1.603-1.192-1.603a.80153.80153 0 0 0 -.638.284 2.06334 2.06334 0 0 0 -.426.922.39569.39569 0 0 1 -.411.341.69358.69358 0 0 1 -.625-.611c0-.212.185-.369.454-.567a6.33933 6.33933 0 0 1 2.129-.993 1.85213 1.85213 0 0 1 1.163.383 2.063 2.063 0 0 1 .639 1.731v2.639c0 .639.255.851.496.851a1.066 1.066 0 0 0 .511-.156l.142.369zm-1.036-3.576c-.298.156-.979.454-1.277.596-.553.256-.865.525-.865 1.036a1.0394 1.0394 0 0 0 1.007 1.093 2.0335 2.0335 0 0 0 1.135-.512z"/><path d="m20.30667 26.5259v-.369c.837-.085.937-.199.937-1.177v-2.37c0-.979-.341-1.617-1.292-1.617a2.53788 2.53788 0 0 0 -1.546.723v3.335c0 .964.085 1.021.922 1.106v.369h-3.079v-.369c.965-.099 1.036-.17 1.036-1.106v-2.937c0-.908-.085-.951-.851-1.093v-.326a8.53265 8.53265 0 0 0 1.972-.582v1.135c.284-.213.596-.426.951-.667a2.176 2.176 0 0 1 1.177-.425c1.121 0 1.83.78 1.83 2.157v2.738c0 .964.071 1.021.894 1.106v.369z"/><path d="m28.47858 25.2495a3.37861 3.37861 0 0 1 -2.412 1.447 2.8362 2.8362 0 0 1 -2.838-2.965 3.41019 3.41019 0 0 1 1.419-2.781 3.74909 3.74909 0 0 1 2.128-.795h.015a2.12 2.12 0 0 1 1.262.369.5206.5206 0 0 1 .227.44.6939.6939 0 0 1 -.468.61c-.071 0-.142-.042-.269-.156a2.05681 2.05681 0 0 0 -1.419-.582c-.937 0-1.76.781-1.76 2.27a2.22083 2.22083 0 0 0 3.874 1.845z"/><path d="m33.88356 25.3197a3.21984 3.21984 0 0 1 -2.313 1.377 2.80527 2.80527 0 0 1 -2.766-3.022 3.65777 3.65777 0 0 1 .936-2.484 2.87894 2.87894 0 0 1 2.072-1.035h.014a2.1973 2.1973 0 0 1 2.128 2.157c0 .283-.071.397-.326.454-.242.042-2.015.184-3.703.241.014 1.93 1.12 2.724 2.114 2.724a2.31933 2.31933 0 0 0 1.617-.709zm-2.412-4.639c-.638 0-1.262.596-1.475 1.745.794 0 1.574-.014 2.397-.042.256 0 .341-.086.341-.284a1.30173 1.30173 0 0 0 -1.249-1.419z"/><path d="m36.49338 21.6598c.426-.71 1.036-1.504 1.717-1.504a.78879.78879 0 0 1 .822.709.79931.79931 0 0 1 -.454.696.33267.33267 0 0 1 -.383-.028.75793.75793 0 0 0 -.595-.299c-.369 0-.823.426-1.135 1.22v2.597c0 .936.071 1.021 1.163 1.106v.369h-3.263v-.369c.879-.085.979-.17.979-1.106v-2.937c0-.936-.071-.993-.88-1.106v-.313a8.04876 8.04876 0 0 0 2.001-.582v1.547z"/><path d="m48.80917 24.2827a14.61265 14.61265 0 0 1 -.775 2.081 11.55409 11.55409 0 0 1 -2.501.366c-3.386 0-4.868-2.338-4.868-4.5 0-2.855 2.202-4.745 5.234-4.745a10.74534 10.74534 0 0 1 2.407.367c.108.775.19 1.319.272 2.053l-.408.095a2.36533 2.36533 0 0 0 -2.637-2.026c-2.271 0-3.481 1.918-3.481 3.984 0 2.543 1.496 4.283 3.562 4.283 1.387 0 2.12-.748 2.8-2.108z"/><path d="m53.43347 25.3197a3.21535 3.21535 0 0 1 -2.311 1.377 2.80545 2.80545 0 0 1 -2.767-3.022 3.65776 3.65776 0 0 1 .936-2.484 2.87693 2.87693 0 0 1 2.071-1.035h.015a2.1973 2.1973 0 0 1 2.128 2.157c0 .283-.072.397-.326.454-.242.042-2.015.184-3.703.241.014 1.93 1.121 2.724 2.113 2.724a2.31976 2.31976 0 0 0 1.618-.709zm-2.411-4.639c-.638 0-1.263.596-1.475 1.745.794 0 1.575-.014 2.397-.042.255 0 .341-.086.341-.284a1.30234 1.30234 0 0 0 -1.249-1.419z"/><path d="m57.77528 26.5259v-.369c.837-.085.937-.199.937-1.177v-2.37c0-.979-.341-1.617-1.292-1.617a2.53531 2.53531 0 0 0 -1.546.723v3.335c0 .964.085 1.021.922 1.106v.369h-3.079v-.369c.965-.099 1.036-.17 1.036-1.106v-2.937c0-.908-.085-.951-.851-1.093v-.326a8.5328 8.5328 0 0 0 1.972-.582v1.135c.283-.213.596-.426.95-.667a2.18183 2.18183 0 0 1 1.178-.425c1.121 0 1.83.78 1.83 2.157v2.738c0 .964.071 1.021.894 1.106v.369z"/><path d="m63.27968 26.5123a1.44184 1.44184 0 0 1 -.596.184c-.894 0-1.39-.567-1.39-1.688v-4.129h-.979l-.057-.142.383-.411h.653v-1.036l.922-.937.199.029v1.944h1.602a.40206.40206 0 0 1 -.085.553h-1.517v3.646c0 1.149.467 1.362.822 1.362a2.03517 2.03517 0 0 0 .88-.241l.128.369z"/><path d="m69.14415 25.3197a3.21989 3.21989 0 0 1 -2.313 1.377 2.80606 2.80606 0 0 1 -2.767-3.022 3.65852 3.65852 0 0 1 .937-2.484 2.8787 2.8787 0 0 1 2.071-1.035h.015a2.1973 2.1973 0 0 1 2.128 2.157c0 .283-.071.397-.326.454-.242.042-2.015.184-3.704.241.014 1.93 1.121 2.724 2.114 2.724a2.31983 2.31983 0 0 0 1.618-.709zm-2.412-4.639c-.639 0-1.263.596-1.476 1.745.795 0 1.575-.014 2.398-.042.255 0 .341-.086.341-.284a1.30234 1.30234 0 0 0 -1.249-1.419z"/><path d="m71.64989 21.6598c.425-.71 1.036-1.504 1.717-1.504a.78981.78981 0 0 1 .823.709.79932.79932 0 0 1 -.454.696.33374.33374 0 0 1 -.384-.028.75977.75977 0 0 0 -.596-.299c-.369 0-.822.426-1.135 1.22v2.597c0 .936.071 1.021 1.164 1.106v.369h-3.264v-.369c.88-.085.98-.17.98-1.106v-2.937c0-.936-.071-.993-.88-1.106v-.313a8.04142 8.04142 0 0 0 2-.582v1.547z"/><path d="m2.709 2.735h.858l.004 2.437h.427l.003-2.437h.844v-.413h-2.136z"/><path d="m7.219 3.49h-1.259v-1.167h-.431v2.85h.431v-1.271h1.259v1.271h.431v-2.85h-.431z"/><path d="m9.09 3.909h1.289v-.412h-1.289v-.762h1.34v-.413h-1.771v2.85h1.826v-.412h-1.395z"/><path d="m14.53778 4.1341c-.017.433-.249.681-.637.681a.61558.61558 0 0 1 -.637-.677v-1.815h-.431v1.82a1.06813 1.06813 0 1 0 2.136-.002v-1.818h-.431z"/><path d="m17.722 4.435-1.324-2.112h-.421v2.849h.43v-2.071l1.295 2.071h.451v-2.849h-.431z"/><path d="m19.23747 2.311h.431v2.861h-.431z"/><path d="m21.564 4.559-.789-2.236h-.467l1.042 2.85h.407l1.03-2.85h-.444z"/><path d="m23.843 3.909h1.288v-.412h-1.288v-.762h1.34v-.413h-1.771v2.85h1.826v-.412h-1.395z"/><path d="m28.04538 4.5652c-.007-.084-.016-.18-.028-.29a.72186.72186 0 0 0 -.279-.59.63705.63705 0 0 0 .346-.571.69673.69673 0 0 0 -.318-.638 1.19568 1.19568 0 0 0 -.677-.154h-.964v2.85h.431v-1.266h.563c.402 0 .425.029.479.627a2.24147 2.24147 0 0 0 .097.575l.023.064h.521l-.098-.148a1.00123 1.00123 0 0 1 -.096-.459m-1.489-1.83.547-.001c.328 0 .531.064.531.38 0 .319-.233.379-.662.379h-.416z"/><path d="m29.94427 3.5427c-.392-.128-.63-.225-.63-.495s.313-.368.522-.368c.316 0 .478.107.483.319l.002.093h.459l-.013-.106c-.052-.457-.402-.718-.96-.718a.87.87 0 0 0 -.942.813c0 .583.582.766 1.007.899.05.016.098.031.145.047.242.079.35.194.35.372 0 .304-.335.417-.545.417-.504 0-.567-.248-.571-.433l-.001-.094h-.45l.002.098a.8605.8605 0 0 0 .887.841c.727 0 1.127-.302 1.127-.851 0-.55-.483-.707-.872-.834"/><path d="m31.69247 2.311h.431v2.861h-.431z"/><path d="m32.761 2.735h.858l.004 2.437h.427l.003-2.437h.844v-.413h-2.136z"/><path d="m36.461 3.524-.761-1.202h-.535l1.06 1.634v1.216h.431v-1.224l1.052-1.626h-.486z"/><path d="m40.75047 2.26741c-.791 0-1.282.567-1.282 1.48s.491 1.48 1.282 1.48c.79 0 1.281-.567 1.281-1.48s-.491-1.48-1.281-1.48m0 2.548c-.614 0-.832-.552-.832-1.068s.218-1.068.832-1.068c.613 0 .832.552.832 1.068s-.219 1.068-.832 1.068"/><path d="m42.896 5.172h.43v-1.277h1.218v-.413h-1.218v-.747h1.262v-.413h-1.692z"/><path d="m46.497 2.735h.858l.004 2.437h.429v-2.437h.845v-.413h-2.136z"/><path d="m49.847 3.909h1.289v-.412h-1.289v-.762h1.34v-.413h-1.771v2.85h1.826v-.412h-1.395z"/><path d="m54.398 2.323h-.505l-.729 1.045-.702-1.045h-.547l.965 1.385-1.013 1.465h.507l.755-1.114.755 1.114h.54l-1.016-1.465z"/><path d="m55.87105 2.3229-1.128 2.849h.453l.279-.718h1.191l.284.718h.468l-1.137-2.849zm-.244 1.719.445-1.137.435 1.137z"/><path d="m58.95637 3.5427c-.392-.128-.631-.225-.631-.495s.314-.368.523-.368c.315 0 .477.107.482.319l.002.093h.459l-.012-.106c-.053-.457-.403-.718-.961-.718a.87059.87059 0 0 0 -.942.813c0 .583.582.766 1.006.899.051.016.1.031.146.047.242.079.35.194.35.372 0 .304-.335.417-.544.417-.505 0-.568-.247-.571-.433l-.002-.094h-.45l.003.098a.86024.86024 0 0 0 .886.841c.728 0 1.127-.302 1.127-.851 0-.55-.483-.707-.871-.834"/></g><path d="m31.55017 22.9934c.468.078.493-.047.978.004.071.029.073.088.165.085l.121-.042.01.051c.065-.02.41-.011.351-.075a5.547 5.547 0 0 1 1.539.143c.089.021.29.016.379.036.075.019.524.063.6.082.419.097.698.079.959.169a2.18688 2.18688 0 0 0 .836.172 9.52311 9.52311 0 0 0 1.72.595.53266.53266 0 0 1 .253.112c.036.03.132.108.185.089.037.046-.01.132.004.177.03.092-.004.169-.155.184-.18-.073-.19.085-.285.099-.458.064-.926-.26-1.395-.112-.064.008.049-.22-.098-.189a2.44976 2.44976 0 0 1 -1.927-.385l.046-.059c-.113-.06-.286.131-.408.085.005-.042.048-.054.027-.115-.048.123-.236.029-.301.116-.044-.055-.027-.155-.084-.218l-.09.135c-.242.32-.485-.08-.779.065.016-.032.046-.054.028-.089a5.83309 5.83309 0 0 1 -1.508.086.2857.2857 0 0 0 .029-.2c-.039.149-.195.171-.33.188-.044-.163-.24.12-.386.019l.017-.033c-.13.154-.161-.11-.272.078l-.061-.13c-.071.217-.155-.13-.26-.026l-.001.045c-.094.046-.13-.07-.216-.04l-.006-.025c-.198.04-.19.052-.337.004-.056-.145-.209.059-.297-.151a4.63979 4.63979 0 0 1 -1.52-.042c-.067-.074-.112-.099-.124-.165-.067.03-.244.014-.308.098.021-.002-.036-.091-.069-.102-.112-.074-.141.18-.264.093a.15507.15507 0 0 0 .063-.161c-.119.127-.264.094-.396.129.022-.028.054-.043.053-.098-.152.144-.255-.048-.386.041l.053-.096c-.192-.134-.073.204-.24.121.043-.029.031-.068.041-.109-.173.172-.429.095-.594.147a.07019.07019 0 0 0 .009-.041 1.77825 1.77825 0 0 0 -.552.014c-.068-.048.036-.242-.151-.215-.005.201-.32.066-.222.298-.157-.041-.403-.129-.512-.067.075-.072-.065-.249.068-.258l-.094-.127c.019-.082.101.033.074-.072-.066.005-.262.074-.32.038-.128.118-.251.343-.45.359.097-.074-.043-.223.021-.255l-.292.373c-.066.006-.007-.159-.105-.111.003.054-.04.084-.071.127-.023-.025-.275.037-.295-.161-.027-.078.108-.037.038-.11-.121-.003-.129.064-.251.062l-.002-.027c-.079-.032-.239.077-.156.189.056.008-.017-.12.064-.059a.34594.34594 0 0 1 -.324.138c.042-.03.039-.083.057-.138l-.428.134c-.229-.137-.487.168-.676-.026.032-.016.014.134.012.107-.112-.014-.103-.15-.178-.101-.005-.08-.093.023-.168.046-.041.056-.019-.04.047-.046a1.04085 1.04085 0 0 1 -.77.057c.004.053-.152.19-.207.184l.023-.123c-.05-.074-.186.009-.194-.097l.107.018c-.112.003-.222.141-.328.024.031.021.093-.17.003-.162-.16.021-.046.059-.176.099l-.081.05c-.007.119-.143-.018-.084.117-.019-.099-.232.059-.215-.141l.024-.156c-.069.011-.114.164-.169.232a.118.118 0 0 1 -.023-.071c-.012.241-.164-.022-.247.165-.143-.083-.366-.006-.434-.156-.111.073-.211.16-.338.109.025-.023.06-.03.067-.081-.08-.071-.1-.008-.172.031.016-.035-.159-.14-.249-.224-.11.072-.071.202-.081.281-.104-.236-.312.155-.441-.059.038-.033.161-.118.068-.177-.103-.236-.203.177-.367.064l.041.197c-.073-.121-.24.117-.224-.084-.055.071-.194-.064-.174.128-.27-.16-.653.103-.82-.241l-.118-.037c-.186-.118-.19.327-.427.253.01-.079-.008-.11-.077-.097l-.13.137c-.153-.031-.088-.18-.092-.314-.082.023-.182.017-.219.118l-.099-.169c.073.122-.067.082-.105.115l.038-.033c-.015-.058-.11-.022-.158-.006.012.084.109.118.161.141-.041.06-.106.046-.161.116.018-.132-.134-.094-.199-.107-.074-.028-.083.118-.105.114-.002-.068-.122-.011-.064-.108.025-.022-.041.045.002-.015-.05-.051.055-.149-.047-.062-.077.066.02.261-.126.178.038-.033.045-.086.075-.133l-.137-.069-.005.121c-.019-.031-.006-.041-.014-.057-.041.126-.208.039-.239.182-.069.013-.145-.083-.211-.097l.013-.01c-.08-.07-.187-.024-.255.057l.004-.026a.23584.23584 0 0 0 -.203.08c-.11-.091-.037-.454-.159-.303-.113.005-.176.22-.131.297-.202-.081-.432.115-.619-.071-.029.049-.011.079-.07.107-.297-.047-.627.142-.862-.094.086-.051.006-.12.004-.189-.071.108-.085-.112-.111.073.007.108 0 .161.083.205a.62534.62534 0 0 1 -.544-.044c.049.05.011.083-.028.116.014-.173-.117-.199-.215-.139l-.015.106-.064-.108c-.038.033-.042.221-.14.12l-.028-.113c-.102.086-.247.232-.357.142l-.09-.154c-.048.017-.128.109-.044.154-.189-.093-.311-.105-.37-.239a1.47973 1.47973 0 0 1 -1.177.313l.011-.08c-.101-.073-.053.139-.124.084.033-.076-.077-.165.003-.257-.145-.083-.188.137-.282.172-.015.105.076-.066.058.066-.017.037-.202-.081-.224.076a.35184.35184 0 0 1 .012-.241l-.089.076c-.109-.183.248-.327.134-.554l-.082.025-.075.133c-.186.043-.086.374-.286.361-.054-.093.16-.023.122-.151-.094-.127-.189.069-.272.025.092.06.014.218-.046.247-.102-.074.066-.148-.078-.165-.024.091-.156.159-.042.222-.052.206-.149-.057-.227.102-.047-.144.148-.335-.011-.407.025.14-.194.19-.111.396a.18523.18523 0 0 1 -.023-.234c-.088-.087-.214.253-.243-.023l-.031.143c-.027-.046-.067-.081-.112-.158-.078-.003-.251.193-.244-.023-.025.023-.202.013-.134.162.111.091.127-.108.189.092-.078-.164-.16.022-.223.077l-.011-.084c-.038.033-.125.015-.149.105a.09461.09461 0 0 0 -.016-.124l-.04.126c-.154.063-.037-.222-.187-.185l.114-.099c-.025.022-.076-.097-.148-.057-.028.115-.08.255-.104.344-.084.051-.038-.13-.121-.011l.109-.14c.016-.038-.074-.191-.187-.187-.073.041-.184.208-.07.271a.10535.10535 0 0 1 -.092-.153c-.128.041.018.124-.093.197-.045-.077-.187-.187-.273-.298l.115-.194-.077-.001c.099-.156-.128.024-.072-.14-.053-.025-.117.031-.168.074.156.261-.093.216-.047.454-.21.067-.061-.565-.278-.19.036.063.085.034-.008.16-.131-.024-.087.24-.242.143.114-.099-.125-.24.039-.384-.01.079.093.059.118.037-.054-.092.009-.241-.124-.24-.082.023-.194.029-.177.153.005.137.125-.015.073.124-.162.048-.191-.16-.256.083.103-.02.13.121.128.215l-.118.058.022-.091c-.192-.064-.055.165-.241.142l-.089-.179c.043-.154.271.066.235-.184-.12-.009-.159.119-.274.055l.085-.051c-.044-.008.068-.267-.102-.069-.088.077-.181.016-.182.11-.193.03-.25.127-.374.144.023-.184-.22-.015-.085-.204.064.106.234.065.301-.111-.073-.217.158-.022.301-.166-.156-.003-.15-.218-.177-.358-.044-.009-.085.051-.111.074-.016.132.04.129.046.265a.4349.4349 0 0 0 -.434.173c-.06-.064-.043-.197.025-.21a1.18307 1.18307 0 0 1 -.519.009c-.151.023-.279.208-.369.098-.134.099.003-.12-.132-.117-.133.097-.195.016-.344.056a2.79065 2.79065 0 0 0 -.492-.172c-.057.016-.07-.052-.114-.049l-.04-.052-.033-.031s-.038.009-.038-.128.025-.157.025-.157l-.008-.381c.119-.059.113-.263.268-.236.361-.103.671.004.735.169a.49586.49586 0 0 1 .01.231c.106-.237.369.028.517-.079.257.098.552-.113.686.073a4.41824 4.41824 0 0 1 1.308-.14l-.078.159c.083-.118.056.091.137.067-.095-.126.113-.166.17-.264.208.122.473-.013.657-.126l.008.109c.185-.206.407-.026.639.006.026.045.068.148.137.136.126-.177.191-.164.375-.275a1.272 1.272 0 0 1 .49.112c.506-.249 1.022-.089 1.548-.239l.038.13c.509-.275 1.135-.023 1.57-.164l-.042.22a.19635.19635 0 0 0 .276-.213c.137.068.341-.106.428.075.139.041.171-.101.287-.13l.581.01c-.029.048-.032.142.034.156.099-.061.362.06.264-.203.281.152.656-.122.929.082-.023-.072.046-.085.075-.133.247-.004.506.142.703.02.039.036-.063.122.038.13.059-.028.001-.094.074-.134.4-.134.809.137 1.172.102a11.17519 11.17519 0 0 1 1.937-.1l-.006.052c.205-.202.487.203.65-.101.049.049.187.022.152.124.163-.144.462.13.699-.053-.022-.005-.034.006-.06.029.242.114.455-.046.713.059-.026.023-.073.039-.081.092.1.101.234-.223.29.031.056-.003.04-.128.005-.121a7.01645 7.01645 0 0 0 1.747-.113c.417.157.019.428.352.244.027.05.021-.097.025-.044.129-.068.194.288.285.157-.034-.157.06-.086.065-.181.253.107.301.248.505.134l-.017.082c.242-.228.513-.095.72-.357 1.307-.012 2.564-.098 3.839-.061a20.588 20.588 0 0 1 2.752.238c.505.061 1.077.156 1.549.217z" fill="#ee3124"/><path d="m5.917 36.4313v-.147c.426-.042.447-.068.441-.626l-.015-2.145h-.021l-1.283 2.882h-.105l-1.178-2.809h-.011l-.078 1.499c-.022.432-.022.662-.016.873.01.252.136.289.483.326v.147h-1.225v-.147c.305-.037.41-.095.447-.315.026-.184.058-.416.1-.963l.074-1.094c.047-.683.021-.704-.458-.752v-.146h.863l1.198 2.628 1.215-2.628h.894v.146c-.463.042-.5.053-.484.594l.053 1.904c.016.558.032.584.489.626v.147z" fill="#231f20"/><path d="m9.17236 36.4943a.4314.4314 0 0 1 -.247-.099.55439.55439 0 0 1 -.127-.237 1.65916 1.65916 0 0 1 -.62.336.63472.63472 0 0 1 -.631-.641.52541.52541 0 0 1 .426-.521 3.7657 3.7657 0 0 0 .815-.341v-.095c0-.379-.179-.595-.442-.595a.29908.29908 0 0 0 -.237.106.76821.76821 0 0 0 -.157.342.14674.14674 0 0 1 -.153.126.25611.25611 0 0 1 -.231-.227c0-.078.068-.136.168-.21a2.33221 2.33221 0 0 1 .789-.367.68841.68841 0 0 1 .431.141.76486.76486 0 0 1 .237.642v.978c0 .236.094.315.184.315a.39377.39377 0 0 0 .189-.057l.053.136zm-.384-1.325c-.111.059-.363.168-.474.221-.205.095-.32.195-.32.384a.38511.38511 0 0 0 .373.405.75493.75493 0 0 0 .421-.189z" fill="#231f20"/><path d="m11.62787 36.4421c-.242-.268-.573-.689-.862-1.041-.069-.085-.116-.116-.164-.116a.27666.27666 0 0 0 -.084.016v.583c0 .348.048.379.384.41v.137h-1.178v-.137c.353-.031.384-.073.384-.41v-2.487c0-.347-.026-.373-.347-.4v-.126a3.81392 3.81392 0 0 0 .757-.184v2.477a.58484.58484 0 0 0 .332-.184 4.2116 4.2116 0 0 0 .373-.463c.105-.163.089-.205-.158-.231v-.137l1.073-.047v.131a1.03036 1.03036 0 0 0 -.679.311c-.131.131-.225.236-.452.499.106.158.637.779.816.962a.72425.72425 0 0 0 .525.289v.137z" fill="#231f20"/><path d="m12.34247 36.4309v-.137c.332-.031.369-.062.369-.42v-1.088c0-.321-.016-.347-.332-.394v-.127a3.27975 3.27975 0 0 0 .747-.205v1.814c0 .358.037.389.374.42v.137zm.279-3.086a.27061.27061 0 0 1 .268-.274.26287.26287 0 0 1 .263.274.26863.26863 0 0 1 -.268.268.27524.27524 0 0 1 -.263-.268" fill="#231f20"/><path d="m15.24048 36.4313v-.137c.31-.031.347-.073.347-.436v-.878c0-.363-.127-.599-.479-.599a.94421.94421 0 0 0 -.573.267v1.236c0 .358.032.379.342.41v.137h-1.141v-.137c.357-.036.384-.062.384-.41v-1.088c0-.337-.032-.352-.316-.405v-.121a3.14288 3.14288 0 0 0 .731-.216v.422c.105-.081.221-.159.352-.248a.80738.80738 0 0 1 .437-.157c.415 0 .678.288.678.798v1.015c0 .358.027.379.332.41v.137z" fill="#231f20"/><path d="m18.82626 34.1701a.76675.76675 0 0 1 -.236.268l-.3-.016a.71349.71349 0 0 1 .158.469.85457.85457 0 0 1 -.921.841 2.31731 2.31731 0 0 1 -.268-.026.327.327 0 0 0 -.157.216c0 .105.094.205.331.205.189 0 .378-.005.552-.005.326 0 .757.104.757.62a1.25449 1.25449 0 0 1 -1.315 1.041c-.583 0-.904-.342-.909-.642a.40746.40746 0 0 1 .126-.294 5.126 5.126 0 0 1 .436-.368.69761.69761 0 0 1 -.389-.29.39729.39729 0 0 1 -.058-.22 1.13087 1.13087 0 0 0 .463-.321.75835.75835 0 0 1 -.463-.705.899.899 0 0 1 .937-.872h.005a1.04931 1.04931 0 0 1 .505.131 6.40483 6.40483 0 0 0 .715-.074zm-1.193 2.319a.62379.62379 0 0 0 -.458.116.567.567 0 0 0 -.242.409c0 .285.305.501.694.501.5 0 .757-.258.757-.584a.3804.3804 0 0 0 -.241-.373 1.33467 1.33467 0 0 0 -.505-.069zm-.116-2.261c-.226 0-.431.221-.431.631s.2.705.494.705c.231-.005.436-.211.436-.626s-.194-.71-.494-.71z" fill="#231f20"/><path d="m23.40158 35.5638a5.66091 5.66091 0 0 1 -.3.805 4.49474 4.49474 0 0 1 -.967.141 1.72651 1.72651 0 0 1 -1.883-1.74 1.85 1.85 0 0 1 2.025-1.835 4.176 4.176 0 0 1 .93.141c.042.301.074.511.106.795l-.158.036a.91464.91464 0 0 0 -1.02-.783 1.39761 1.39761 0 0 0 -1.346 1.541 1.4709 1.4709 0 0 0 1.377 1.656c.537 0 .821-.289 1.083-.815z" fill="#231f20"/><path d="m25.34157 36.4943a.4314.4314 0 0 1 -.247-.099.55223.55223 0 0 1 -.126-.237 1.66205 1.66205 0 0 1 -.621.336.63386.63386 0 0 1 -.63-.641.52447.52447 0 0 1 .425-.521 3.72167 3.72167 0 0 0 .815-.341v-.095c0-.379-.178-.595-.441-.595a.29911.29911 0 0 0 -.237.106.76791.76791 0 0 0 -.158.342.14644.14644 0 0 1 -.152.126.25708.25708 0 0 1 -.232-.227c0-.078.069-.136.169-.21a2.33554 2.33554 0 0 1 .788-.367.69126.69126 0 0 1 .432.141.76428.76428 0 0 1 .236.642v.978c0 .236.095.315.184.315a.39054.39054 0 0 0 .189-.057l.053.136zm-.384-1.325c-.11.059-.362.168-.473.221-.205.095-.321.195-.321.384a.38525.38525 0 0 0 .374.405.752.752 0 0 0 .42-.189z" fill="#231f20"/><path d="m27.37648 36.4313v-.137c.31-.031.347-.073.347-.436v-.878c0-.363-.126-.599-.478-.599a.94429.94429 0 0 0 -.573.267v1.236c0 .358.031.379.342.41v.137h-1.142v-.137c.358-.036.384-.062.384-.41v-1.088c0-.337-.031-.352-.315-.405v-.121a3.1714 3.1714 0 0 0 .731-.216v.422c.105-.081.22-.159.352-.248a.80158.80158 0 0 1 .436-.157c.416 0 .679.288.679.798v1.015c0 .358.026.379.331.41v.137z" fill="#231f20"/><path d="m30.642 35.9584a1.2507 1.2507 0 0 1 -.893.536 1.05179 1.05179 0 0 1 -1.053-1.099 1.26738 1.26738 0 0 1 .526-1.031 1.39324 1.39324 0 0 1 .789-.294h.006a.78092.78092 0 0 1 .468.137.19408.19408 0 0 1 .084.163.25732.25732 0 0 1 -.174.226c-.026 0-.052-.016-.1-.058a.75984.75984 0 0 0 -.525-.215c-.348 0-.653.289-.653.841a.86386.86386 0 0 0 .794.973.8521.8521 0 0 0 .642-.29z" fill="#231f20"/><path d="m32.77217 35.984a1.19116 1.19116 0 0 1 -.857.51 1.03971 1.03971 0 0 1 -1.026-1.12 1.35393 1.35393 0 0 1 .347-.92 1.06986 1.06986 0 0 1 .768-.383h.005a.81323.81323 0 0 1 .789.799c0 .105-.026.147-.121.168-.089.016-.747.068-1.372.09.005.715.415 1.009.783 1.009a.86122.86122 0 0 0 .6-.263zm-.894-1.719c-.236 0-.469.221-.547.647.294 0 .584-.005.889-.016.095 0 .126-.031.126-.105a.48273.48273 0 0 0 -.463-.526z" fill="#231f20"/><path d="m33.89207 34.628c.158-.263.384-.557.636-.557a.29189.29189 0 0 1 .305.262.2953.2953 0 0 1 -.168.258.1236.1236 0 0 1 -.142-.01.281.281 0 0 0 -.221-.111c-.137 0-.305.158-.421.452v.963c0 .347.026.378.432.409v.137h-1.21v-.137c.326-.031.363-.062.363-.409v-1.089c0-.347-.026-.368-.326-.41v-.116a2.93581 2.93581 0 0 0 .741-.216v.574z" fill="#231f20"/><path d="m39.90747 33.1606c-.431.037-.473.063-.473.5v2.124c0 .442.042.469.468.5v.147h-1.41v-.147c.448-.031.494-.058.494-.5v-1.052h-1.792v1.052c0 .437.042.469.473.5v.147h-1.383v-.147c.421-.031.463-.058.463-.5v-2.124c0-.442-.042-.463-.474-.5v-.147h1.363v.147c-.4.037-.442.063-.442.5v.852h1.792v-.852c0-.437-.042-.463-.452-.5v-.147h1.373z" fill="#231f20"/><path d="m40.15967 36.4309v-.137c.332-.031.368-.062.368-.42v-1.088c0-.321-.016-.347-.331-.394v-.127a3.2713 3.2713 0 0 0 .746-.205v1.814c0 .358.038.389.374.42v.137zm.279-3.086a.27061.27061 0 0 1 .268-.274.26346.26346 0 0 1 .263.274.26927.26927 0 0 1 -.268.268.27524.27524 0 0 1 -.263-.268" fill="#231f20"/><path d="m42.90437 34.7541c-.099-.31-.283-.521-.541-.521a.34334.34334 0 0 0 -.342.363c0 .231.21.358.447.457.394.164.663.353.663.715a.78956.78956 0 0 1 -.868.726 1.05747 1.05747 0 0 1 -.605-.178 2.48069 2.48069 0 0 1 -.084-.621l.137-.026c.094.347.331.652.646.652a.36689.36689 0 0 0 .374-.368c0-.232-.152-.358-.415-.479-.316-.147-.658-.32-.658-.725a.72463.72463 0 0 1 .799-.678 1.145 1.145 0 0 1 .469.088 4.1921 4.1921 0 0 1 .115.563z" fill="#231f20"/><path d="m44.47217 36.4259a.54192.54192 0 0 1 -.221.069c-.332 0-.515-.211-.515-.626v-1.53h-.364l-.021-.053.143-.152h.242v-.384l.341-.347.073.011v.72h.595a.14927.14927 0 0 1 -.032.205h-.563v1.351c0 .426.174.505.306.505a.75221.75221 0 0 0 .326-.09l.047.137z" fill="#231f20"/><path d="m46.15976 34.0708a1.13911 1.13911 0 0 1 1.136 1.172 1.16978 1.16978 0 0 1 -1.141 1.252 1.13772 1.13772 0 0 1 -1.151-1.162 1.19818 1.19818 0 0 1 1.151-1.262zm-.063.173c-.321 0-.605.326-.605.92 0 .663.29 1.157.72 1.157.327 0 .595-.241.595-.962 0-.616-.247-1.115-.705-1.115z" fill="#231f20"/><path d="m48.38968 34.628c.157-.263.383-.557.636-.557a.29188.29188 0 0 1 .305.262.2953.2953 0 0 1 -.168.258.12307.12307 0 0 1 -.142-.01.281.281 0 0 0 -.221-.111c-.137 0-.305.158-.421.452v.963c0 .347.026.378.432.409v.137h-1.21v-.137c.326-.031.363-.062.363-.409v-1.089c0-.347-.027-.368-.326-.41v-.116a2.94785 2.94785 0 0 0 .741-.216v.574z" fill="#231f20"/><path d="m51.78107 34.265c-.279.042-.326.085-.468.384-.132.279-.294.715-.657 1.583a11.38162 11.38162 0 0 0 -.542 1.425.16011.16011 0 0 1 -.168.126.30286.30286 0 0 1 -.3-.253c0-.084.047-.13.137-.189a1.07382 1.07382 0 0 0 .389-.467 2.00661 2.00661 0 0 0 .163-.364.33745.33745 0 0 0 -.005-.236c-.211-.6-.448-1.236-.605-1.609-.11-.29-.163-.358-.452-.4v-.131h1.067v.131c-.242.042-.268.095-.2.289l.479 1.32c.147-.357.373-.978.484-1.309.063-.2.026-.258-.274-.3v-.131h.952z" fill="#231f20"/><path d="m51.72076 33.4023a.61451.61451 0 1 1 .616.616.61628.61628 0 0 1 -.616-.616m1.131 0a.5165.5165 0 1 0 -.515.518.49744.49744 0 0 0 .515-.518m-.655.348h-.091v-.702h.303c.183 0 .245.068.245.195 0 .135-.094.185-.217.196l.209.311h-.101l-.198-.311h-.15zm.124-.393c.098 0 .235.016.235-.116 0-.098-.082-.112-.167-.112h-.192v.228z" fill="#231f20"/></g></g></svg>